<svg width="720" height="1024" viewBox="0 0 720 1024" fill="none" xmlns="http://www.w3.org/2000/svg">
<path d="M616.187 -0.0390625C616.018 -1.32898 615.12 -1.31165 613.674 -0.0390625H0V509.48V1024H641.645C641.645 1024 797.694 826.777 641.645 509.48C497.459 216.307 596.094 15.4274 613.674 -0.0390625H616.187Z" fill="#78E6FF"/>
<path d="M616.187 -0.0390625C616.018 -1.32898 615.12 -1.31165 613.674 -0.0390625H0V509.48V1024H641.645C641.645 1024 797.694 826.777 641.645 509.48C497.459 216.307 596.094 15.4274 613.674 -0.0390625H616.187Z" fill="url(#paint0_linear)"/>
<g clip-path="url(#clip0)">
<path d="M242.348 729.947C238.457 731.314 234.28 731.656 230.219 730.941C226.158 730.226 222.35 728.478 219.161 725.866C211.039 719.054 208.493 707.831 206.421 697.439L200.293 666.703L213.123 675.531C222.349 681.88 231.783 688.432 238.172 697.628C244.56 706.824 247.349 719.377 242.216 729.327" fill="#E6E6E6"/>
<path d="M241.251 767.16C242.55 757.708 243.885 748.134 242.974 738.58C242.165 730.096 239.575 721.809 234.301 715.014C231.502 711.414 228.096 708.329 224.236 705.899C223.23 705.264 222.304 706.858 223.306 707.49C229.984 711.708 235.15 717.937 238.058 725.278C241.269 733.442 241.785 742.341 241.232 751.013C240.897 756.257 240.188 761.467 239.473 766.67C239.416 766.906 239.452 767.154 239.571 767.364C239.691 767.574 239.886 767.732 240.117 767.804C240.353 767.867 240.604 767.835 240.816 767.715C241.028 767.594 241.185 767.395 241.251 767.16Z" fill="#F2F2F2"/>
<path d="M228.744 750.434C227.075 752.968 224.782 755.03 222.084 756.422C219.387 757.813 216.376 758.486 213.343 758.378C205.547 758.008 199.047 752.57 193.196 747.407L175.891 732.138L187.344 731.59C195.581 731.196 204.03 730.829 211.875 733.367C219.72 735.906 226.955 742.014 228.39 750.13" fill="#E6E6E6"/>
<path d="M244.921 772.594C238.671 761.542 231.421 749.259 218.468 745.334C214.866 744.246 211.089 743.856 207.341 744.185C206.16 744.287 206.455 746.107 207.634 746.005C213.917 745.484 220.187 747.142 225.39 750.7C230.397 754.106 234.295 758.84 237.594 763.861C239.615 766.937 241.426 770.143 243.236 773.344C243.815 774.368 245.506 773.629 244.921 772.594V772.594Z" fill="#F2F2F2"/>
<path d="M398.964 694.953C406.631 697.646 414.863 698.321 422.867 696.912C430.871 695.503 438.377 692.058 444.662 686.908C460.668 673.483 465.686 651.364 469.769 630.884C473.795 610.692 477.821 590.499 481.847 570.307L456.562 587.706C438.378 600.218 419.784 613.132 407.194 631.256C394.604 649.379 389.108 674.12 399.224 693.73" fill="#E6E6E6"/>
<path d="M401.125 768.294C398.566 749.665 395.935 730.796 397.73 711.967C399.324 695.245 404.429 678.912 414.822 665.52C420.339 658.425 427.052 652.347 434.659 647.557C436.642 646.306 438.468 649.447 436.493 650.693C423.331 659.006 413.15 671.282 407.419 685.75C401.089 701.839 400.073 719.378 401.164 736.469C401.823 746.805 403.221 757.073 404.63 767.328C404.741 767.792 404.672 768.281 404.436 768.695C404.201 769.11 403.816 769.42 403.361 769.562C402.896 769.687 402.401 769.624 401.982 769.387C401.564 769.149 401.256 768.757 401.125 768.294Z" fill="#F2F2F2"/>
<path d="M425.775 735.329C429.064 740.323 433.584 744.387 438.9 747.13C444.216 749.872 450.15 751.199 456.128 750.984C471.493 750.256 484.303 739.539 495.834 729.364L529.941 699.27L507.368 698.19C491.135 697.414 474.483 696.69 459.021 701.693C443.56 706.696 429.3 718.735 426.473 734.729" fill="#E6E6E6"/>
<path d="M393.893 779.003C406.211 757.221 420.498 733.014 446.028 725.277C453.127 723.133 460.57 722.364 467.957 723.014C470.285 723.214 469.704 726.801 467.38 726.601C454.997 725.573 442.639 728.841 432.385 735.853C422.517 742.565 414.835 751.897 408.332 761.792C404.349 767.854 400.781 774.172 397.213 780.482C396.072 782.499 392.739 781.043 393.893 779.003Z" fill="#F2F2F2"/>
<path d="M600.594 467.057L558.032 552.156M600.594 467.057L551.85 553.054C552.269 553.504 552.791 553.845 553.371 554.047C553.951 554.25 554.572 554.308 555.18 554.217C555.785 554.127 556.361 553.893 556.857 553.534C557.353 553.176 557.756 552.703 558.032 552.156M600.594 467.057C600.916 466.417 601.05 465.698 600.982 464.985C600.913 464.271 600.644 463.591 600.206 463.023C599.768 462.456 599.179 462.023 598.506 461.775C597.833 461.527 597.103 461.474 596.401 461.622L595.023 461.91L600.594 467.057ZM558.032 552.156L557.585 551.933L557.585 551.931M558.032 552.156L557.585 551.931M557.585 551.931L600.147 466.834L600.147 466.833C600.427 466.276 600.544 465.652 600.484 465.032C600.424 464.413 600.191 463.822 599.811 463.329C599.43 462.836 598.918 462.46 598.333 462.244C597.748 462.029 597.114 461.983 596.505 462.112L596.504 462.112L595.126 462.4M557.585 551.931C557.346 552.407 556.996 552.817 556.564 553.129C556.133 553.441 555.633 553.645 555.106 553.723L555.106 553.723C554.578 553.802 554.039 553.751 553.536 553.575C553.032 553.399 552.579 553.104 552.216 552.714L552.215 552.712L523.191 521.764L595.126 462.4M595.126 462.4L595.125 462.4L489.069 484.605C488.46 484.734 487.899 485.031 487.451 485.463C487.003 485.896 486.687 486.445 486.537 487.049C486.388 487.653 486.411 488.287 486.606 488.878C486.8 489.469 487.157 489.994 487.636 490.391L487.317 490.776L487.636 490.391L504.406 504.316L504.409 504.318C504.704 504.568 504.947 504.871 505.126 505.213L505.13 505.221L505.133 505.228C505.301 505.577 505.395 505.956 505.411 506.343C505.411 506.343 505.411 506.344 505.411 506.344L506.458 531.88L506.458 531.88L506.458 531.889C506.474 532.612 506.733 533.309 507.194 533.867C507.654 534.426 508.29 534.813 508.997 534.967L509.001 534.968L509.031 534.975L509.031 534.975L509.039 534.977C509.738 535.148 510.474 535.08 511.129 534.784C511.785 534.488 512.323 533.982 512.657 533.346L512.657 533.346L512.662 533.338L518.71 522.314L518.712 522.31C518.959 521.868 519.322 521.502 519.762 521.25C520.2 520.998 520.699 520.871 521.204 520.88C521.577 520.883 521.947 520.962 522.288 521.114C522.63 521.265 522.937 521.486 523.189 521.761L595.126 462.4ZM487.966 489.99L487.967 489.991L504.736 503.915L504.74 503.918C504.929 504.073 505.101 504.248 505.251 504.441L505.253 504.443C505.387 504.613 505.503 504.797 505.598 504.991L505.6 504.995C505.683 505.16 505.751 505.331 505.803 505.508L505.803 505.511L505.834 505.631C505.893 505.856 505.926 506.086 505.933 506.319L505.933 506.324L506.979 531.854C506.99 532.467 507.208 533.059 507.598 533.532C507.988 534.006 508.528 534.334 509.129 534.461C509.13 534.461 509.131 534.462 509.132 534.462C509.133 534.462 509.134 534.462 509.134 534.462M487.966 489.99L509.161 534.328L509.251 533.976M487.966 489.99C487.563 489.655 487.264 489.213 487.101 488.715C486.938 488.217 486.919 487.683 487.046 487.175C487.173 486.666 487.44 486.204 487.817 485.841L488.164 486.201M487.966 489.99L488.164 486.201M509.134 534.462L509.14 534.464L509.251 533.976M509.134 534.462C509.726 534.611 510.35 534.557 510.907 534.308C511.465 534.059 511.922 533.63 512.206 533.089C512.207 533.087 512.207 533.086 512.208 533.084L518.254 522.062C518.524 521.57 518.917 521.154 519.393 520.856C519.851 520.569 520.372 520.399 520.91 520.36L520.912 520.36L520.979 520.357C521.07 520.354 521.135 520.351 521.195 520.354L521.204 520.354L521.213 520.354C521.735 520.358 522.249 520.488 522.709 520.735L522.712 520.736C523.033 520.905 523.322 521.129 523.566 521.396L523.57 521.4L552.598 552.353L552.598 552.353C552.905 552.68 553.286 552.928 553.71 553.076C554.133 553.224 554.586 553.267 555.03 553.203C555.473 553.138 555.895 552.968 556.259 552.706C556.622 552.443 556.917 552.097 557.118 551.697L557.119 551.696L599.681 466.597L599.682 466.595L599.682 466.595C599.914 466.127 600.01 465.603 599.958 465.082C599.906 464.562 599.709 464.067 599.39 463.653C599.07 463.24 598.641 462.924 598.151 462.742C597.66 462.561 597.129 462.52 596.617 462.626L596.615 462.626L596.615 462.626L595.204 462.922L595.204 462.922L489.18 485.119L489.18 485.119C488.667 485.227 488.195 485.477 487.817 485.841L488.164 486.201M509.134 534.462L509.133 534.462L488.164 486.201M509.251 533.976C509.735 534.099 510.247 534.056 510.704 533.852C511.16 533.648 511.534 533.296 511.765 532.853M509.251 533.976L511.765 532.853M511.765 532.853L517.816 521.822C518.127 521.254 518.579 520.776 519.128 520.432C519.676 520.088 520.304 519.89 520.951 519.856L520.958 519.858L520.961 519.858C521.047 519.854 521.133 519.851 521.217 519.854C521.82 519.858 522.413 520.009 522.945 520.294C523.317 520.49 523.651 520.748 523.935 521.058L552.963 552.011C553.214 552.279 553.527 552.482 553.875 552.604C554.222 552.725 554.594 552.761 554.958 552.708C555.322 552.655 555.668 552.515 555.966 552.3C556.265 552.085 556.507 551.801 556.672 551.472L511.765 532.853Z" fill="white" stroke="#3F3D56"/>
<path d="M504.406 504.316L504.409 504.318C504.704 504.568 504.947 504.871 505.126 505.213L505.13 505.221L505.133 505.228C505.301 505.577 505.395 505.956 505.411 506.343L505.411 506.344L506.458 531.88L506.458 531.88L506.458 531.889C506.474 532.612 506.733 533.309 507.194 533.867C507.654 534.426 508.29 534.813 508.997 534.967L509.001 534.968L509.031 534.975L509.031 534.975L509.039 534.977C509.738 535.148 510.474 535.08 511.129 534.784C511.785 534.488 512.323 533.982 512.657 533.346L512.657 533.346L512.662 533.338L518.711 522.314L518.712 522.31C518.959 521.868 519.322 521.502 519.762 521.25C520.2 520.999 520.699 520.871 521.204 520.88C521.577 520.883 521.947 520.962 522.288 521.114C522.63 521.265 522.937 521.486 523.189 521.761C523.19 521.762 523.191 521.763 523.192 521.764L552.215 552.712L552.216 552.714C552.579 553.104 553.032 553.399 553.536 553.575C554.039 553.751 554.578 553.802 555.106 553.723L555.106 553.723C555.633 553.645 556.133 553.441 556.564 553.129C556.995 552.818 557.345 552.407 557.585 551.932C557.585 551.932 557.585 551.932 557.585 551.931L600.147 466.834L600.147 466.833C600.427 466.276 600.544 465.652 600.484 465.032C600.424 464.413 600.191 463.822 599.811 463.329C599.43 462.836 598.918 462.46 598.333 462.244C597.748 462.029 597.114 461.983 596.505 462.112L596.504 462.112L595.126 462.4L595.125 462.4L489.069 484.605C488.46 484.734 487.899 485.031 487.451 485.463C487.003 485.896 486.687 486.445 486.537 487.049C486.388 487.653 486.411 488.287 486.606 488.878C486.8 489.469 487.157 489.994 487.636 490.391L487.317 490.776L487.636 490.391L504.406 504.316Z" fill="#F7F7F7" stroke="#3F3D56"/>
<path d="M505.133 505.228C505.301 505.576 505.395 505.955 505.411 506.342L595.125 462.4L489.069 484.605C488.46 484.734 487.899 485.031 487.451 485.463C487.003 485.896 486.687 486.445 486.537 487.049C486.388 487.653 486.411 488.287 486.606 488.878C486.8 489.469 487.157 489.994 487.636 490.391L487.317 490.776L487.636 490.391L504.406 504.316L504.409 504.318C504.704 504.568 504.947 504.871 505.126 505.213L505.13 505.221L505.133 505.228ZM504.74 503.918L504.736 503.915L487.967 489.991L487.966 489.99C487.563 489.655 487.264 489.213 487.101 488.715C486.938 488.217 486.919 487.683 487.046 487.175C487.173 486.666 487.44 486.204 487.817 485.841C488.195 485.477 488.667 485.227 489.18 485.119L489.18 485.119L595.204 462.922L595.204 462.922L596.615 462.626L596.615 462.626L596.617 462.626C597.129 462.52 597.66 462.561 598.151 462.742C598.641 462.924 599.07 463.24 599.39 463.653C599.709 464.067 599.906 464.562 599.958 465.082C600.01 465.603 599.914 466.127 599.682 466.595L599.682 466.595L599.681 466.597L557.119 551.696L557.119 551.697C556.917 552.097 556.622 552.443 556.259 552.706C555.895 552.968 555.473 553.138 555.03 553.203C554.586 553.267 554.133 553.224 553.71 553.076C553.287 552.928 552.905 552.68 552.598 552.354L552.598 552.353L523.57 521.4L523.567 521.396C523.322 521.129 523.033 520.905 522.712 520.736L522.001 520.361L522.652 519.889L596.409 466.416L596.409 466.416L596.413 466.413C596.608 466.275 596.748 466.072 596.81 465.842C596.872 465.611 596.85 465.366 596.75 465.149C596.65 464.932 596.477 464.757 596.262 464.653C596.046 464.55 595.801 464.526 595.569 464.584L595.569 464.584L595.563 464.586C595.51 464.598 595.458 464.616 595.409 464.638L595.409 464.638L595.405 464.64L505.849 504.59L505.492 504.749L505.251 504.441C505.101 504.248 504.929 504.073 504.74 503.918Z" fill="#C4C4C4" stroke="#3F3D56"/>
<path d="M505.306 504.283L505.928 505.673L506.317 505.504L506.319 505.497L595.804 465.586L520.958 519.858L520.951 519.856L520.752 520.006L521.644 521.24L522.945 520.294L596.702 466.821C596.992 466.615 597.201 466.314 597.293 465.971C597.385 465.627 597.353 465.262 597.204 464.939C597.055 464.617 596.798 464.356 596.477 464.202C596.156 464.049 595.792 464.012 595.447 464.099C595.362 464.119 595.28 464.148 595.201 464.184L505.645 504.133L505.306 504.283Z" fill="#3F3D56"/>
<path d="M275.046 610.674L271.175 648.491L271.099 649.268L269.949 660.483L260.502 752.821V752.836L258.666 770.751C259.383 771.714 260.017 772.735 260.563 773.804C262.227 777.086 263.04 780.734 262.929 784.411C262.817 788.089 261.783 791.68 259.923 794.856C255.314 793.699 250.768 792.379 246.286 790.897C237.013 787.849 227.97 784.144 219.224 779.811C220.134 774.81 222.748 770.277 226.622 766.982L236.107 653.09L236.938 643.101L239.642 610.674H275.046Z" fill="#FFB8B8"/>
<path d="M247.919 507.675C228.357 488.126 228.357 456.431 247.919 436.883C267.48 417.334 299.196 417.334 318.757 436.883C338.319 456.431 338.319 488.126 318.757 507.675C299.196 527.224 267.48 527.224 247.919 507.675Z" fill="#FFB8B8"/>
<path d="M376.701 678.885C376.693 678.984 376.685 679.083 376.678 679.174C376.511 681.127 375.724 682.975 374.432 684.449C373.139 685.923 371.409 686.945 369.493 687.366L294.74 703.682C294.092 703.824 293.43 703.896 292.766 703.896C290.761 703.895 288.812 703.237 287.217 702.022C285.622 700.808 284.47 699.105 283.937 697.173C283.777 696.579 283.601 695.97 283.411 695.338V695.33C280.889 686.773 276.386 675.124 269.949 660.483C268.494 657.171 266.937 653.702 265.279 650.075C264.974 649.405 264.662 648.727 264.357 648.05C260.936 640.626 257.119 632.591 252.906 623.945C250.845 619.718 249.287 615.264 248.266 610.674C245.552 598.557 246.624 585.9 251.337 574.411C252.296 572.072 253.403 569.796 254.651 567.596C259.571 558.928 266.543 551.598 274.955 546.247C283.368 540.897 292.966 537.689 302.907 536.906C304.484 536.776 306.053 536.715 307.631 536.715C323.404 536.785 338.545 542.925 349.906 553.861C356.61 560.357 361.7 568.331 364.77 577.144C364.968 577.7 365.151 578.263 365.334 578.826C368.148 587.744 370.408 596.826 372.099 606.022C373.112 611.481 373.935 616.864 374.598 622.11C376.921 640.94 377.625 659.935 376.701 678.885Z" fill="#6C63FF"/>
<path d="M409.621 774.543C364.205 800.339 310.577 807.616 259.923 794.856C255.314 793.699 250.768 792.379 246.285 790.897C250.262 777.939 255.009 765.229 260.502 752.836V752.821C269.66 732.302 278.07 719.747 282.169 714.205C282.843 713.287 283.286 712.22 283.463 711.096C283.639 709.971 283.543 708.821 283.183 707.741L281.91 703.926C281.426 702.483 281.309 700.942 281.571 699.442C281.834 697.942 282.466 696.532 283.411 695.338V695.33C283.495 695.224 283.586 695.117 283.678 695.011C316.979 657.095 375.032 677.781 375.619 677.994L375.909 678.101L376.091 678.352C376.29 678.626 376.487 678.893 376.678 679.174C392.418 701.216 402.878 735.096 409.621 774.543Z" fill="#2F2E41"/>
<path d="M478.071 530.426C477.82 531.526 477.657 532.643 477.583 533.769L389.974 584.277L368.68 572.026L345.978 601.726L381.567 627.075C384.442 629.122 387.904 630.183 391.434 630.097C394.964 630.011 398.37 628.783 401.142 626.598L491.481 555.375C495.558 556.883 499.998 557.115 504.21 556.04C508.422 554.965 512.207 552.634 515.061 549.357C517.915 546.08 519.704 542.012 520.188 537.695C520.672 533.377 519.83 529.015 517.772 525.187C515.715 521.36 512.541 518.249 508.671 516.269C504.802 514.289 500.421 513.533 496.111 514.101C491.801 514.67 487.766 516.537 484.544 519.453C481.321 522.369 479.063 526.196 478.071 530.426Z" fill="#FFB8B8"/>
<path d="M388.631 583.501V583.509C388.314 584.655 387.776 585.728 387.047 586.669L372.099 606.022L364.976 615.258L358.728 623.343C357.923 624.387 356.902 625.244 355.735 625.858C354.568 626.472 353.283 626.827 351.966 626.899C350.649 626.971 349.333 626.759 348.106 626.277C346.878 625.795 345.77 625.054 344.855 624.105L322.167 600.563L312.804 590.841C307.484 586.692 304.027 580.605 303.191 573.913C302.356 567.221 304.21 560.472 308.347 555.144C312.484 549.816 318.566 546.346 325.26 545.493C331.954 544.64 338.713 546.475 344.055 550.595L349.906 553.861L384.258 573.063C386.048 574.066 387.451 575.638 388.243 577.53C389.036 579.421 389.172 581.523 388.631 583.501H388.631Z" fill="#6C63FF"/>
<path d="M289.544 595.637L288.112 641.357L288.104 641.647C288.064 642.964 287.739 644.258 287.153 645.439C286.566 646.62 285.732 647.661 284.707 648.491C283.681 649.32 282.489 649.919 281.211 650.247C279.933 650.574 278.599 650.622 277.301 650.387L271.099 649.268L269.514 648.979H269.507L264.357 648.05L236.937 643.101L231.688 642.157C230.391 641.921 229.16 641.409 228.078 640.656C226.997 639.902 226.09 638.925 225.42 637.79C224.75 636.655 224.332 635.39 224.195 634.079C224.058 632.769 224.205 631.444 224.626 630.196L239.414 586.44C240.65 579.812 244.466 573.944 250.025 570.124C255.584 566.303 262.432 564.841 269.068 566.059C275.703 567.276 281.585 571.074 285.424 576.618C289.262 582.163 290.744 589.003 289.544 595.637Z" fill="#6C63FF"/>
<path d="M291.266 460.765C304.14 469.57 321.045 478.622 334.194 469.245C342.828 463.088 345.548 451.686 342.047 441.68C335.751 423.686 318.452 415.765 301.91 409.693C280.405 401.799 256.99 395.519 234.79 401.172C212.59 406.826 192.97 428.305 196.978 450.847C200.201 468.974 217.311 484.057 214.882 502.308C212.437 520.675 191.768 530.344 173.519 533.626C155.271 536.909 134.851 537.964 121.737 551.063C105.007 567.773 109.185 597.64 124.927 615.282C140.669 632.925 164.424 640.922 187.443 646.358C217.942 653.561 250.928 657.347 279.894 645.393C308.86 633.438 331.401 601.259 323.01 571.084C319.466 558.338 311.117 547.566 303.047 537.08C294.978 526.593 286.807 515.627 283.729 502.76C281.164 492.038 283.063 479.59 290.178 471.547C291.472 470.139 292.286 468.358 292.504 466.459C292.722 464.56 292.332 462.641 291.39 460.977L291.266 460.765Z" fill="#2F2E41"/>
</g>
<defs>
<linearGradient id="paint0_linear" x1="-6.074e-06" y1="511.02" x2="710.745" y2="511.02" gradientUnits="userSpaceOnUse">
<stop stop-color="#00D1FF"/>
<stop offset="1" stop-color="white" stop-opacity="0"/>
</linearGradient>
<clipPath id="clip0">
<rect width="490" height="402" fill="white" transform="matrix(-1 0 0 1 601 399)"/>
</clipPath>
</defs>
</svg>
